# Blender 4.5.3 LTS
# www.blender.org
mtllib Gem.mtl
o Diamond
v 0.000000 1.353240 0.751553
v 0.232242 1.353240 0.714769
v 0.441751 1.353240 0.608019
v 0.608019 1.353241 0.441752
v 0.714769 1.353241 0.232243
v 0.751552 1.353241 0.000000
v 0.714769 1.353241 -0.232242
v 0.608019 1.353241 -0.441751
v 0.441751 1.353241 -0.608018
v 0.232242 1.353241 -0.714768
v 0.000000 1.353241 -0.751552
v -0.232242 1.353241 -0.714768
v -0.441751 1.353241 -0.608018
v -0.608019 1.353241 -0.441751
v -0.714769 1.353241 -0.232242
v -0.751552 1.353241 0.000000
v -0.714769 1.353241 0.232243
v -0.608019 1.353241 0.441752
v -0.441751 1.353240 0.608019
v -0.232242 1.353240 0.714769
v 0.000000 -0.173341 -0.000000
v 0.000000 1.000000 1.000000
v 0.309017 1.000000 0.951057
v 0.587785 1.000000 0.809017
v 0.809017 1.000000 0.587786
v 0.951057 1.000000 0.309017
v 1.000000 1.000000 0.000000
v 0.951057 1.000000 -0.309017
v 0.809017 1.000000 -0.587785
v 0.587785 1.000000 -0.809017
v 0.309017 1.000000 -0.951056
v 0.000000 1.000000 -1.000000
v -0.309017 1.000000 -0.951056
v -0.587785 1.000000 -0.809017
v -0.809017 1.000000 -0.587785
v -0.951057 1.000000 -0.309017
v -1.000000 1.000000 0.000000
v -0.951057 1.000000 0.309017
v -0.809017 1.000000 0.587786
v -0.587785 1.000000 0.809017
v -0.309017 1.000000 0.951057
vn 0.1197 -0.6440 0.7556
vn 0.3473 -0.6440 0.6817
vn 0.5410 -0.6440 0.5410
vn 0.6817 -0.6440 0.3473
vn 0.7556 -0.6440 0.1197
vn 0.7556 -0.6440 -0.1197
vn 0.6817 -0.6440 -0.3473
vn 0.5410 -0.6440 -0.5410
vn 0.3473 -0.6440 -0.6817
vn 0.1197 -0.6440 -0.7556
vn -0.1197 -0.6440 -0.7556
vn -0.3473 -0.6440 -0.6817
vn -0.5410 -0.6440 -0.5410
vn -0.6817 -0.6440 -0.3473
vn -0.7556 -0.6440 -0.1197
vn -0.7556 -0.6440 0.1197
vn -0.6817 -0.6440 0.3473
vn -0.5410 -0.6440 0.5410
vn -0.0000 1.0000 -0.0000
vn -0.3473 -0.6440 0.6817
vn -0.1197 -0.6440 0.7556
vn 0.1285 0.5705 0.8112
vn 0.3729 0.5705 0.7318
vn 0.5807 0.5705 0.5807
vn 0.7318 0.5705 0.3729
vn 0.8112 0.5705 0.1285
vn 0.8112 0.5705 -0.1285
vn 0.7318 0.5705 -0.3729
vn 0.5807 0.5705 -0.5807
vn 0.3729 0.5705 -0.7318
vn 0.1285 0.5705 -0.8112
vn -0.1285 0.5705 -0.8112
vn -0.3729 0.5705 -0.7318
vn -0.5807 0.5705 -0.5807
vn -0.7318 0.5705 -0.3729
vn -0.8112 0.5705 -0.1285
vn -0.8112 0.5705 0.1285
vn -0.7318 0.5705 0.3729
vn -0.5807 0.5705 0.5807
vn -0.3729 0.5705 0.7318
vn -0.1285 0.5705 0.8112
vt 0.250000 0.490000
vt 0.250000 0.250000
vt 0.324164 0.478254
vt 0.391068 0.444164
vt 0.444164 0.391068
vt 0.478254 0.324164
vt 0.490000 0.250000
vt 0.478254 0.175836
vt 0.444164 0.108932
vt 0.391068 0.055836
vt 0.324164 0.021746
vt 0.250000 0.010000
vt 0.175836 0.021746
vt 0.108932 0.055836
vt 0.055836 0.108932
vt 0.021746 0.175836
vt 0.010000 0.250000
vt 0.021746 0.324164
vt 0.055836 0.391068
vt 0.108932 0.444164
vt 0.750000 0.430373
vt 0.805738 0.421544
vt 0.856020 0.395924
vt 0.895925 0.356020
vt 0.921544 0.305738
vt 0.930373 0.250000
vt 0.921544 0.194262
vt 0.895924 0.143980
vt 0.856020 0.104076
vt 0.805738 0.078456
vt 0.750000 0.069627
vt 0.694262 0.078456
vt 0.643980 0.104076
vt 0.604076 0.143980
vt 0.578456 0.194262
vt 0.569627 0.250000
vt 0.578456 0.305738
vt 0.604076 0.356020
vt 0.643980 0.395924
vt 0.694262 0.421544
vt 0.175836 0.478254
vt 0.750000 0.490000
vt 0.824164 0.478254
vt 0.891068 0.444164
vt 0.944164 0.391068
vt 0.978254 0.324164
vt 0.990000 0.250000
vt 0.978254 0.175836
vt 0.944164 0.108932
vt 0.891068 0.055836
vt 0.824164 0.021746
vt 0.750000 0.010000
vt 0.675836 0.021746
vt 0.608932 0.055836
vt 0.555836 0.108932
vt 0.521746 0.175836
vt 0.510000 0.250000
vt 0.521746 0.324164
vt 0.555836 0.391068
vt 0.608932 0.444164
vt 0.675836 0.478254
s 0
usemtl Diamond_Mat
f 22/1/1 21/2/1 23/3/1
f 23/3/2 21/2/2 24/4/2
f 24/4/3 21/2/3 25/5/3
f 25/5/4 21/2/4 26/6/4
f 26/6/5 21/2/5 27/7/5
f 27/7/6 21/2/6 28/8/6
f 28/8/7 21/2/7 29/9/7
f 29/9/8 21/2/8 30/10/8
f 30/10/9 21/2/9 31/11/9
f 31/11/10 21/2/10 32/12/10
f 32/12/11 21/2/11 33/13/11
f 33/13/12 21/2/12 34/14/12
f 34/14/13 21/2/13 35/15/13
f 35/15/14 21/2/14 36/16/14
f 36/16/15 21/2/15 37/17/15
f 37/17/16 21/2/16 38/18/16
f 38/18/17 21/2/17 39/19/17
f 39/19/18 21/2/18 40/20/18
f 1/21/19 2/22/19 3/23/19 4/24/19 5/25/19 6/26/19 7/27/19 8/28/19 9/29/19 10/30/19 11/31/19 12/32/19 13/33/19 14/34/19 15/35/19 16/36/19 17/37/19 18/38/19 19/39/19 20/40/19
f 40/20/20 21/2/20 41/41/20
f 41/41/21 21/2/21 22/1/21
f 2/22/22 1/21/22 22/42/22 23/43/22
f 3/23/23 2/22/23 23/43/23 24/44/23
f 4/24/24 3/23/24 24/44/24 25/45/24
f 5/25/25 4/24/25 25/45/25 26/46/25
f 6/26/26 5/25/26 26/46/26 27/47/26
f 7/27/27 6/26/27 27/47/27 28/48/27
f 8/28/28 7/27/28 28/48/28 29/49/28
f 9/29/29 8/28/29 29/49/29 30/50/29
f 10/30/30 9/29/30 30/50/30 31/51/30
f 11/31/31 10/30/31 31/51/31 32/52/31
f 12/32/32 11/31/32 32/52/32 33/53/32
f 13/33/33 12/32/33 33/53/33 34/54/33
f 14/34/34 13/33/34 34/54/34 35/55/34
f 15/35/35 14/34/35 35/55/35 36/56/35
f 16/36/36 15/35/36 36/56/36 37/57/36
f 17/37/37 16/36/37 37/57/37 38/58/37
f 18/38/38 17/37/38 38/58/38 39/59/38
f 19/39/39 18/38/39 39/59/39 40/60/39
f 20/40/40 19/39/40 40/60/40 41/61/40
f 1/21/41 20/40/41 41/61/41 22/42/41
